<svg width="24" height="23" viewBox="0 0 24 23" fill="none" xmlns="http://www.w3.org/2000/svg">
<g opacity="0.8">
<mask id="mask0" mask-type="alpha" maskUnits="userSpaceOnUse" x="0" y="0" width="24" height="23">
<path fill-rule="evenodd" clip-rule="evenodd" d="M0 0.76416V22.3186H23.979V0.76416H0L0 0.76416Z" fill="white"/>
</mask>
<g mask="url(#mask0)">
<path fill-rule="evenodd" clip-rule="evenodd" d="M18.7763 9.75167L17.1923 10.5024C17.0208 10.1816 16.81 9.95681 16.5604 9.82855C16.3104 9.70067 16.0713 9.63634 15.8431 9.63634C14.7727 9.63634 14.2377 10.2714 14.2377 11.5415C14.2377 12.1189 14.3729 12.5806 14.6444 12.9269C14.9153 13.2737 15.3151 13.4466 15.8431 13.4466C16.5425 13.4466 17.0348 13.1387 17.3206 12.5229L18.8191 13.1964C18.4905 13.7228 18.0484 14.1366 17.4916 14.4379C16.9353 14.7395 16.3283 14.8901 15.672 14.8901C14.5872 14.8901 13.7201 14.5951 13.0708 14.0048C12.4211 13.4149 12.0964 12.5935 12.0964 11.5415C12.0964 10.515 12.4285 9.70067 13.0922 9.0974C13.7559 8.49412 14.5942 8.19287 15.6079 8.19287C17.0919 8.19287 18.1484 8.7126 18.7763 9.75167ZM11.8608 9.75167L10.2554 10.5024C10.0839 10.1816 9.87316 9.95681 9.62356 9.82855C9.37395 9.70067 9.14181 9.63634 8.92799 9.63634C7.85759 9.63634 7.32217 10.2714 7.32217 11.5415C7.32217 12.1189 7.45788 12.5806 7.72886 12.9269C7.99984 13.2737 8.39955 13.4466 8.92799 13.4466C9.62705 13.4466 10.1197 13.1387 10.4051 12.5229L11.8826 13.1964C11.5684 13.7228 11.1329 14.1366 10.5761 14.4379C10.0198 14.7395 9.40581 14.8901 8.73512 14.8901C7.66471 14.8901 6.80115 14.5951 6.14486 14.0048C5.48813 13.4149 5.15955 12.5935 5.15955 11.5415C5.15955 10.515 5.49162 9.70067 6.15533 9.0974C6.81904 8.49412 7.6573 8.19287 8.67097 8.19287C10.1555 8.19287 11.2189 8.7126 11.8608 9.75167ZM12.0109 2.70752C9.27052 2.70752 6.96521 3.56733 5.0954 5.28656C4.15372 6.14637 3.42892 7.11209 2.92231 8.18293C2.41569 9.25455 2.1626 10.374 2.1626 11.5414C2.1626 12.6961 2.41569 13.8093 2.92231 14.8802C3.42892 15.9518 4.15372 16.9077 5.0954 17.7479C6.03751 18.5885 7.10092 19.2298 8.28565 19.6723C9.46994 20.1151 10.7118 20.3364 12.0109 20.3364C13.2955 20.3364 14.5405 20.112 15.747 19.6629C16.9527 19.2138 18.041 18.5658 19.0119 17.7189C20.8817 16.0769 21.8164 14.0176 21.8164 11.5414C21.8164 10.3481 21.5738 9.21925 21.0886 8.15429C20.6033 7.08933 19.8964 6.14009 18.9691 5.30578C17.0422 3.57361 14.7224 2.70752 12.0109 2.70752ZM11.9681 0.76416C15.322 0.76416 18.1767 1.81653 20.5318 3.92049C21.6594 4.93402 22.5155 6.09191 23.1011 7.39413C23.6863 8.69636 23.9791 10.0786 23.9791 11.5412C23.9791 13.0168 23.6898 14.3991 23.112 15.6884C22.5338 16.9776 21.6807 18.1167 20.5532 19.1043C19.3828 20.1434 18.0554 20.9392 16.5714 21.4907C15.0864 22.0422 13.5526 22.3183 11.9681 22.3183C10.3837 22.3183 8.86735 22.0457 7.41862 21.5001C5.96946 20.9549 4.67084 20.1661 3.52189 19.133C2.37295 18.1006 1.49891 16.9361 0.899346 15.6405C0.299782 14.3446 0 12.9784 0 11.5412C0 10.117 0.303273 8.74774 0.910255 7.43257C1.51636 6.1174 2.39782 4.9403 3.55418 3.90087C5.83767 1.80986 8.64218 0.76416 11.9681 0.76416Z" fill="#DDE1E6"/>
</g>
</g>
</svg>
