<svg width="43" height="42" viewBox="0 0 43 42" fill="none" xmlns="http://www.w3.org/2000/svg">
<path fill-rule="evenodd" clip-rule="evenodd" d="M21.6759 3.5C11.9314 3.5 4.02271 11.34 4.02271 21C4.02271 30.66 11.9314 38.5 21.6759 38.5C31.4205 38.5 39.3292 30.66 39.3292 21C39.3292 11.34 31.4205 3.5 21.6759 3.5ZM21.6759 8.75C24.6064 8.75 26.9719 11.095 26.9719 14C26.9719 16.905 24.6064 19.25 21.6759 19.25C18.7455 19.25 16.3799 16.905 16.3799 14C16.3799 11.095 18.7455 8.75 21.6759 8.75ZM11.0839 28.14C13.3612 31.535 17.2626 33.775 21.6759 33.775C26.0892 33.775 29.9905 31.535 32.2678 28.14C32.2149 24.6575 25.1889 22.75 21.6759 22.75C18.1452 22.75 11.1369 24.6575 11.0839 28.14Z" fill="white"/>
<mask id="mask0" mask-type="alpha" maskUnits="userSpaceOnUse" x="4" y="3" width="36" height="36">
<path fill-rule="evenodd" clip-rule="evenodd" d="M21.6759 3.5C11.9314 3.5 4.02271 11.34 4.02271 21C4.02271 30.66 11.9314 38.5 21.6759 38.5C31.4205 38.5 39.3292 30.66 39.3292 21C39.3292 11.34 31.4205 3.5 21.6759 3.5ZM21.6759 8.75C24.6064 8.75 26.9719 11.095 26.9719 14C26.9719 16.905 24.6064 19.25 21.6759 19.25C18.7455 19.25 16.3799 16.905 16.3799 14C16.3799 11.095 18.7455 8.75 21.6759 8.75ZM11.0839 28.14C13.3612 31.535 17.2626 33.775 21.6759 33.775C26.0892 33.775 29.9905 31.535 32.2678 28.14C32.2149 24.6575 25.1889 22.75 21.6759 22.75C18.1452 22.75 11.1369 24.6575 11.0839 28.14Z" fill="white"/>
</mask>
<g mask="url(#mask0)">
<rect x="0.492188" width="42.3678" height="42" rx="4" fill="white"/>
</g>
</svg>
